{
	"asset":{
		"generator":"Khronos glTF Blender I/O v5.0.21",
		"version":"2.0"
	},
	"extensionsUsed":[
		"KHR_materials_specular",
		"KHR_materials_ior"
	],
	"scene":0,
	"scenes":[
		{
			"name":"Scene",
			"nodes":[
				9
			]
		}
	],
	"nodes":[
		{
			"name":"CA-JT6.0-EX-01 Vol.6\u30ab\u30e9\u30fc\u30e2\u30c7\u30eb"
		},
		{
			"children":[
				0
			],
			"name":"CA-JT6.0-EX-01 Vol.6\u30ab\u30e9\u30fc\u30e2\u30c7\u30eb:1",
			"rotation":[
				-0.8011353611946106,
				0,
				0.5984832048416138,
				6.059708113070883e-08
			],
			"scale":[
				0.7074811458587646,
				0.7074810266494751,
				0.7074811458587646
			],
			"translation":[
				-0.017258603125810623,
				1.1313666105270386,
				-0.0336257740855217
			]
		},
		{
			"name":"JT-10.0-EX-02 JACKET"
		},
		{
			"children":[
				2
			],
			"name":"JT-10.0-EX-02 JACKET:1"
		},
		{
			"mesh":0,
			"name":"Body1.002",
			"scale":[
				1.5252021551132202,
				1.6253982782363892,
				0.634573221206665
			]
		},
		{
			"children":[
				4
			],
			"name":"JT-10.0-EX-02 TUBE Vol.9"
		},
		{
			"children":[
				5
			],
			"name":"JT-10.0-EX-02 TUBE Vol.9:1"
		},
		{
			"children":[
				3,
				6
			],
			"name":"JT-10.0-EX-02 Vol.9"
		},
		{
			"children":[
				7
			],
			"name":"JT-10.0-EX-02 Vol.9:1",
			"rotation":[
				-0.70710688829422,
				0,
				0,
				0.7071066498756409
			],
			"scale":[
				0.7074810862541199,
				0.7074812054634094,
				0.7074810862541199
			],
			"translation":[
				-0.017258604988455772,
				0.508782684803009,
				-0.0336257666349411
			]
		},
		{
			"children":[
				1,
				8
			],
			"name":"JT-10.0-EX-02 ASSY(B)B\u30ab\u30e9\u30fc\u30e2\u30c7\u30eb v1",
			"rotation":[
				-0.9999527335166931,
				0.0006653172895312309,
				-0.009583611972630024,
				0.001500569051131606
			],
			"scale":[
				0.009999999776482582,
				0.010000002570450306,
				0.01000000350177288
			],
			"translation":[
				0.00014151455252431333,
				0.024445559829473495,
				-0.0013266693567857146
			]
		}
	],
	"materials":[
		{
			"alphaMode":"BLEND",
			"doubleSided":true,
			"extensions":{
				"KHR_materials_specular":{
					"specularColorFactor":[
						2.3713576793670654,
						2.3713576793670654,
						2.3713576793670654
					]
				},
				"KHR_materials_ior":{
					"ior":1.4500000476837158
				}
			},
			"name":"Opaque(225,225,225).001",
			"pbrMetallicRoughness":{
				"baseColorFactor":[
					0.8823529481887817,
					0.8823529481887817,
					0.8823529481887817,
					0.36936938762664795
				],
				"roughnessFactor":0.5527864098548889
			}
		}
	],
	"meshes":[
		{
			"name":"Body1.013",
			"primitives":[
				{
					"attributes":{
						"POSITION":0,
						"NORMAL":1,
						"TEXCOORD_0":2
					},
					"indices":3,
					"material":0
				}
			]
		}
	],
	"accessors":[
		{
			"bufferView":0,
			"componentType":5126,
			"count":5651,
			"max":[
				0.8500000238418579,
				0.8500000238418579,
				7.740499973297119
			],
			"min":[
				-0.8500000238418579,
				-0.8500000238418579,
				-5.0306980803327406e-17
			],
			"type":"VEC3"
		},
		{
			"bufferView":1,
			"componentType":5126,
			"count":5651,
			"type":"VEC3"
		},
		{
			"bufferView":2,
			"componentType":5126,
			"count":5651,
			"type":"VEC2"
		},
		{
			"bufferView":3,
			"componentType":5123,
			"count":21024,
			"type":"SCALAR"
		}
	],
	"bufferViews":[
		{
			"buffer":0,
			"byteLength":67812,
			"byteOffset":0,
			"target":34962
		},
		{
			"buffer":0,
			"byteLength":67812,
			"byteOffset":67812,
			"target":34962
		},
		{
			"buffer":0,
			"byteLength":45208,
			"byteOffset":135624,
			"target":34962
		},
		{
			"buffer":0,
			"byteLength":42048,
			"byteOffset":180832,
			"target":34963
		}
	],
	"buffers":[
		{
			"byteLength":222880,
			"uri":"sample01_tube.bin"
		}
	]
}
